<?xml version="1.0" encoding="utf-8"?>
<!-- Generator: Adobe Illustrator 17.0.0, SVG Export Plug-In . SVG Version: 6.00 Build 0)  -->
<!DOCTYPE svg PUBLIC "-//W3C//DTD SVG 1.1//EN" "http://www.w3.org/Graphics/SVG/1.1/DTD/svg11.dtd">
<svg version="1.1" id="Layer_1" xmlns="http://www.w3.org/2000/svg" xmlns:xlink="http://www.w3.org/1999/xlink" x="0px" y="0px"
	 width="2000px" height="2000px" viewBox="0 0 2000 2000" enable-background="new 0 0 2000 2000" xml:space="preserve">
<path d="M1752.007,652.706c-0.819-8.732-2.713-17.364-6.277-26.206c-4.771,16.342-9.542,32.683-14.313,49.025
	c-4.754-21.715-13.753-39.653-33.803-49.274c-11.797-5.66-24.932-7.084-38.841-4.71c11.082,9.333,21.889,17.157,31.152,26.509
	c17.503,17.671,20.791,44.132,9.406,65.917c-10.958,20.97-33.34,31.022-58.312,28.102c-41.671-4.874-103.349-56.808-104.081-58.785
	c20.199-0.086,35.691-8.441,47.376-25.674c-7.946-1.097-15.097-2.015-22.225-3.081c-25.541-3.817-48.87-14.279-70.262-27.677
	c-40.226-25.195-79.264-52.289-118.769-78.633c-41.004-27.343-84.37-49.527-132.667-61.006c-2.46-0.585-4.853-1.45-5.717-1.711
	c29.314-13.379,59.461-27.138,89.607-40.897c-0.318-0.893-68.449-0.623-100.566,4.042c-42.919,6.234-83.335,20.736-117.831,48.264
	c-23.025,18.374-39.663,41.091-45.35,70.821c-0.694,3.629-3.136,8.81-5.94,9.741l-27.919,0.14v-39.508h0.03V430.57l17.618,2.363
	c12.478,1.456,25.178,2.938,38.375,4.478c-20.831-18.102-35.099-40.881-45.982-66.175c-7.649-17.779-14.93-49.673-18.876-66.84
	c-0.283-1.232-0.549-2.387-0.797-3.457c-0.248,1.069-0.514,2.225-0.797,3.457c-3.946,17.168-11.227,49.062-18.876,66.84
	c-10.882,25.294-25.15,48.073-45.982,66.175c13.197-1.54,25.897-3.022,38.375-4.478l19.648-2.636v4.496l-0.105,9.87
	c0.001,3.271-0.015,6.541-0.022,9.812c0.043,0,0.085,0,0.128,0v78.435c-0.031,0-0.062,0-0.093,0
	c-0.028,4.065-0.061,8.129-0.082,12.194c-0.009,1.696-0.063,3.706,0.167,5.491c-10.921,0.518-18.946,11.444-18.946,11.444
	c-6.882,1.631-14.437,6.045-18.576,3.891c-10.711-5.572-16.259-1.227-21.289,6.872c-1.458,2.347-3.248,3.826-5.193,4.673
	c-2.803-0.934-5.243-6.113-5.937-9.74c-5.687-29.73-22.325-52.448-45.35-70.821c-34.496-27.528-74.913-42.03-117.831-48.264
	c-32.117-4.665-100.247-4.936-100.566-4.042c30.147,13.759,60.293,27.518,89.607,40.897c-0.865,0.262-3.258,1.127-5.717,1.711
	c-48.298,11.48-91.663,33.663-132.667,61.006c-39.505,26.344-78.543,53.438-118.769,78.633
	c-21.392,13.398-44.721,23.861-70.262,27.677c-7.128,1.065-14.278,1.984-22.225,3.081c11.685,17.233,27.177,25.587,47.376,25.674
	c-0.732,1.978-62.41,53.912-104.081,58.785c-24.972,2.92-47.354-7.132-58.312-28.102c-11.384-21.786-8.097-48.246,9.406-65.917
	c9.263-9.353,20.07-17.177,31.152-26.509c-13.909-2.374-27.044-0.951-38.841,4.71c-20.05,9.621-29.049,27.558-33.804,49.274
	c-4.771-16.342-9.542-32.683-14.312-49.025c-3.565,8.842-5.459,17.473-6.278,26.206c-2.207,23.536,2.123,46.115,11.534,67.686
	c9.053,20.751,21.075,39.738,41.261,50.959c11.837,6.58,25.63,9.573,38.373,14.608c25.565,10.102,51.033,20.45,76.505,30.785
	c34.714,14.084,69.412,28.205,104.083,42.394c35.586,14.563,71.079,29.351,106.706,43.812
	c43.573,17.686,87.271,35.064,130.779,52.909l1.793,11.279l-0.832,0.132c0.486,2.984,0.833,5.997,1.126,9.019l0.026,0.013
	c0,0,3.452,41.541,14.597,66.123h0c7.191,15.908,14.257,31.876,22.101,47.453c6.075,12.063,12.838,24.361,26.381,30.363
	c0.562,0.249,0.604,1.669,0.987,2.849c-2.54,0.414-4.891,0.797-8.124,1.323c9.025,33.003,23.309,62.152,47.207,88.809
	c0.469-6.689,0.777-11.078,1.085-15.468c3.025,8.379,4.921,16.796,5.594,25.308c0.966,12.204,1.563,24.49,1.291,36.717
	c-0.152,6.809,2.778,10.473,8.003,13.673c10.792,6.61,21.435,13.462,32.14,20.214c-0.253,0.638-0.507,1.276-0.76,1.914
	c-11.533-3.958-23.067-7.917-38.176-13.104c14.798,59.889,17.1,118.462,14.067,176.566c-4.183,4.646-9.811,9.036-12.952,14.784
	c-5.941,10.874,2.811,24.299,15.028,24.314c15.162,0.019,30.323-0.089,45.484,0.007c3.663,0.023,7.322,0.635,10.982,0.975
	c-20.672,6.153-41.354,10.38-62.097,14.281c-6.982,1.313-11.479,3.393-11.784,11.992c-0.776,21.891-2.929,43.73-3.872,65.618
	c-1.29,29.955-1.418,59.969-3.118,89.896c-0.343,6.037-0.92,12.067-1.609,18.153c70.829-49.831,141.722-99.57,212.66-149.242
	c26.324-18.433,52.655-36.857,78.993-55.272c0.059-1.916,0.105-3.831,0.136-5.744c0.124-7.64-2.41-15.749-5.455-22.917
	c-4.915-11.571-12.175-14.281-24.559-11.773c-6.835,1.384-13.815,2.058-20.729,3.051c3.75-3.876,8.24-5.952,12.621-8.239
	c8.951-4.672,19.049-6.353,19.952-20.921c2.004-32.342,6.672-64.515,9.932-96.788c0.72-7.127,0.105-14.388,0.105-23.185
	c-14.624,3.718-27.289,6.939-39.953,10.159c-0.18-0.628-0.361-1.255-0.541-1.882c12.063-4.663,24.127-9.325,36.578-14.137
	c-4.198-7.055-8.081-13.578-11.963-20.102c2.678,0.18,4.148,0.998,5.104,2.218c20.574,26.25,46.815,45.094,77.336,57.842
	c18.066,7.546,37.099,12.089,56.247,4.319c5.107-2.072,11.485-7.786,12.25-12.623c3.529-22.322,4.198-44.845-4.352-66.551
	c-9.44-20.311-15.526-34.155-15.569-34.251c-8.198-12.805-16.117-25.579-23.279-37.004c0.857-2.651,2.49-4.949,1.979-6.57
	c-3.155-10.005-6.242-20.094-10.383-29.712c-9.438-21.923-22.956-40.625-45.391-50.915c-11.236-5.153-22.997-9.155-34.462-13.822
	c-13.584-5.53-27.105-11.217-42.047-17.414c6.387-1.444,11.748-2.656,15.495-3.504c-1.792-11.494-3.445-22.097-5.097-32.699
	c21.911,13.255,24.28,13.686,35.1,6.703c-7.435-7.319-15.15-14.914-23.761-23.391l-3.881-7.987
	c-0.269-5.172-0.757-9.984-1.186-14.544l110.205-42.942c0,0,3.097-1,5.224-1.874c44.713-18.372,89.642-36.219,134.435-54.4
	c35.627-14.461,71.12-29.249,106.706-43.812c34.671-14.188,69.37-28.31,104.083-42.394c25.472-10.335,50.94-20.683,76.505-30.785
	c12.743-5.035,26.535-8.028,38.373-14.608c20.186-11.221,32.208-30.208,41.261-50.959
	C1749.884,698.821,1754.214,676.242,1752.007,652.706z M797.652,788.244c-15.723,20.229-29.23,43.187-35.141,68.332
	c-6.619,28.159-4.778,59.064-6.073,87.83c-0.037,0.823-0.142,1.657-0.295,2.766c-130.754-53.165-260.25-105.82-389.738-158.47
	c0.041-0.742,10.85-4.312,16.224-5.289c36.037-6.551,68.259-22.366,97.827-43.041c33.702-23.565,66.137-48.94,99.119-73.535
	c0.959-0.715,1.875-1.49,1.188-0.942c-29.374,0.99-60.032,2.024-90.69,3.057c-0.103-0.952,28.537-9.907,42.353-15.06
	c32.348-12.064,64.325-25.123,96.442-37.804c32.718-12.919,60.522-34.401,90.635-51.867c19.755-11.458,40.995-19.548,63.714-23.297
	c40.335-6.655,70.982,10.31,96.177,39.842c7.719,9.048,14.234,19.124,22.534,30.406c5.466-17.035,4.782-32.213-1.759-46.802
	c-14.123-31.503-40.677-50.621-69.211-67.458c-9.553-5.637-19.532-10.552-28.5-17.919c5.657,2.083,11.4,3.96,16.956,6.284
	c27.529,11.516,53.934,24.879,75.323,46.396c20.159,20.28,27.47,43.975,19.366,71.859c-0.802,2.76-1.42,5.573-2.393,9.427h17.656
	l-0.119,0.305l-0.428-0.167l-0.797,0.752c-8.282,16.534-15.381,30.945-22.798,45.173c-1.008,1.932-3.543,3.862-5.672,4.287
	c-13.373,2.665-14.824,5.484-9.473,15.203C858.723,715.421,826.795,750.749,797.652,788.244z M1008.082,809.118
	c-0.008,6.2-0.676,10.386-7.546,13.507c-6.733,3.059-12.408,8.871-17.749,14.264c-1.302,1.315,0.522,5.725,1.027,9.624
	c-11.007,2.31-17.743,10.776-23.282,21.434c-2.41,4.636-8.801,7.025-12.532,11.196c-4.976,5.563-11.983,11.398-13.059,17.947
	c-2.636,16.045-11.626,27.973-20.185,40.693c-4.314,6.411-7.409,13.928-9.69,21.383c-2.441,8.003-4.911,16.312-6.341,24.55
	c-0.541,3.114-3.388,9.118-0.58,11.42c1.549,1.269,12.429-0.768,11.911-3.445c1.282,6.629,0.966,14.578-1.377,20.927
	c-0.384,1.041-15.691-5.668-17.322-6.495c-9.85-4.991-16.257-12.226-14.705-24.41c0.606-4.763-0.431-9.749,0.298-14.477
	c0.576-3.729,1.952-7.856,4.324-10.667c4.037-4.785,5.472-10.007-0.051-12.929c-10.698-5.659-10.193-19.5-17.326-27.938
	c-1.901,1.727-5.686,2.627-7.452,4.521c2.374-2.546,3.382-15.923,5.402-19.719c12.83-24.098,27.501-47.283,39.211-71.89
	c12.024-25.267,21.691-51.683,31.784-77.83c5.163-13.375,8.889-27.3,13.559-40.875c0.712-2.069,2.716-4.607,4.643-5.183
	c7.326-2.187,9.344-7.174,6.65-13.363c-2.546-5.851,0.117-8.26,4.423-10.576c1.978-1.063,3.905-2.665,6.01-2.977
	c15.563-2.304,26.815-11.206,36.304-23.016c0.471-0.587,1.6-0.645,3.437-1.324c0.288,3.201,0.747,5.882,0.738,8.56
	C1008.437,711.061,1008.147,760.089,1008.082,809.118z M1235.203,950.69l-112.245,41.825c-0.182-4.011-0.143-7.876,0.38-11.668
	c3.841-27.875-0.568-54.284-15.537-77.403c-7.646-11.809-13.793-24.023-20.073-36.376c-3.141-6.177-8.891-11.958-9.445-18.271
	c-0.607-6.921-1.711-10.164-8.933-9.331c3.277-12.041-9.107-18.602-42.353-23.634V641.84h-0.32v-28.879h61.613
	c-0.973-3.854-1.591-6.667-2.393-9.427c-8.104-27.884-0.793-51.579,19.366-71.859c21.389-21.518,47.794-34.88,75.323-46.396
	c5.556-2.324,11.299-4.201,16.956-6.284c-8.968,7.367-18.947,12.282-28.5,17.919c-28.534,16.837-55.087,35.955-69.211,67.458
	c-6.541,14.589-7.224,29.767-1.758,46.802c8.3-11.282,14.815-21.358,22.534-30.406c25.195-29.532,55.841-46.497,96.177-39.842
	c22.719,3.749,43.959,11.839,63.714,23.297c30.113,17.466,57.917,38.948,90.635,51.867c32.117,12.682,64.094,25.741,96.442,37.804
	c13.816,5.153,42.456,14.108,42.353,15.06c-30.658-1.033-61.317-2.067-90.69-3.057c-0.687-0.548,0.229,0.226,1.188,0.942
	c32.982,24.594,65.417,49.97,99.119,73.535c29.568,20.674,61.79,36.49,97.827,43.041c5.375,0.977,16.183,4.547,16.224,5.289
	C1501.248,842.514,1368.901,896.328,1235.203,950.69z"/>
</svg>
