<?xml version="1.0" encoding="utf-8"?>
<!-- Generator: Adobe Illustrator 17.0.0, SVG Export Plug-In . SVG Version: 6.00 Build 0)  -->
<!DOCTYPE svg PUBLIC "-//W3C//DTD SVG 1.1//EN" "http://www.w3.org/Graphics/SVG/1.1/DTD/svg11.dtd">
<svg version="1.1" id="Layer_1" xmlns="http://www.w3.org/2000/svg" xmlns:xlink="http://www.w3.org/1999/xlink" x="0px" y="0px"
	 width="2000px" height="2000px" viewBox="0 0 2000 2000" enable-background="new 0 0 2000 2000" xml:space="preserve">
<g>
	<path d="M1210.566,990.385c3.871-45.183-6.137-87.394-23.794-128.657c-15.596-36.446-31.298-72.857-41.74-111.39
		c-8.189-30.221-7.638-60.366-6.198-91.671c-38.158,41.359-49.991,90.515-39.971,144.489c9.115,49.101,13.966,98.136,10.828,147.973
		c-1.565,24.863-8.8,47.819-23.946,67.575c-8.889,11.596-20.491,21.908-36.555,17.124c-16.81-5.006-18.949-20.187-18.352-35.079
		c0.528-13.169,1.719-26.422,4.007-39.394c27.495-155.91-7.196-305.582-39.748-455.919c-0.227-1.047-0.453-2.094-0.679-3.141
		c-0.226,1.047-0.453,2.094-0.679,3.141c-32.553,150.337-67.243,300.009-39.748,455.919c2.287,12.971,3.479,26.224,4.007,39.394
		c0.597,14.892-1.541,30.073-18.352,35.079c-16.064,4.784-27.666-5.529-36.555-17.124c-15.145-19.756-22.38-42.712-23.946-67.575
		c-3.138-49.838,1.713-98.872,10.828-147.973c10.02-53.974-1.813-103.13-39.971-144.489c1.439,31.306,1.991,61.451-6.198,91.671
		c-10.442,38.534-26.145,74.944-41.74,111.39c-17.657,41.263-27.664,83.474-23.794,128.657c3.027,35.333,1.5,69.992-23.521,97.999
		c28.724,15.679,40.063-44.147,75.558-10.573c33.404,31.596,2.591,51.6-7.888,79.753c22.404-7.399,39.462-15.378,57.355-18.378
		c25.275-4.238,51.612-1.178,56.632,29.93c4.225,26.182,17.751,32.643,40.651,31.633c5.784-0.255,11.572-0.425,17.362-0.565
		c5.79,0.14,11.579,0.31,17.362,0.565c22.899,1.01,36.425-5.451,40.651-31.633c5.02-31.108,31.357-34.167,56.632-29.93
		c17.893,3,34.951,10.979,57.355,18.378c-10.479-28.153-41.292-48.157-7.888-79.753c35.495-33.573,46.834,26.252,75.558,10.573
		C1209.066,1060.378,1207.539,1025.719,1210.566,990.385z"/>
	<path d="M1045.539,1326.634c0,8.962-7.367,16.228-16.454,16.228h-65.81c-9.087,0-16.454-7.266-16.454-16.228v-99.39
		c0-8.963,7.367-16.228,16.454-16.228h65.81c9.087,0,16.454,7.266,16.454,16.228V1326.634z"/>
	<g>
		<path d="M1096.214,1377.159c3.96-0.649,8.188-1.661,12.601-2.661c269.647-61.112,425.417-351.54,326.886-609.851
			c-29.638-77.7-76.548-143.056-138.01-200.04c2.948,0.994,19.96,10.211,25.055,14.391
			c122.607,100.579,191.622,229.926,196.931,388.415c8.645,258.078-170.98,476.85-423.694,523.523
			C1096.09,1453.01,1096.165,1415.085,1096.214,1377.159z"/>
		<path d="M1029.648,1351.831h-77.079c-1.064,0-2.101,0.101-3.118,0.256l0-0.019l-0.018,0.021
			c-5.612,0.858-10.397,3.965-13.266,8.306l-0.017-0.012c-1.439,1.89-2.852,3.393-2.852,3.393
			c-27.757,15.181-70.802,3.196-74.017,2.268c-249.834-75.923-389.559-353.453-294.983-601.397
			c29.638-77.7,76.548-143.056,138.01-200.04c-2.948,0.994-19.96,10.211-25.055,14.391
			C554.645,679.576,485.63,808.923,480.321,967.412c-8.554,255.351,167.217,472.194,415.719,521.959l0.005,0.025l1.315,0.234
			c2.217,0.438,4.427,0.894,6.655,1.306c0-0.041,0-0.083,0-0.124l16.882,2.998c0,0,7.665,1.688,30.317,3.895l-0.001-0.064
			c0.45,0.029,0.898,0.064,1.356,0.064h77.079c10.643,0,19.271-8.038,19.271-17.954v-109.964
			C1048.92,1359.87,1040.292,1351.831,1029.648,1351.831z"/>
	</g>
</g>
</svg>
