<?xml version="1.0" encoding="utf-8"?>
<!-- Generator: Adobe Illustrator 17.0.0, SVG Export Plug-In . SVG Version: 6.00 Build 0)  -->
<!DOCTYPE svg PUBLIC "-//W3C//DTD SVG 1.1//EN" "http://www.w3.org/Graphics/SVG/1.1/DTD/svg11.dtd">
<svg version="1.1" id="Layer_1" xmlns="http://www.w3.org/2000/svg" xmlns:xlink="http://www.w3.org/1999/xlink" x="0px" y="0px"
	 width="2000px" height="2000px" viewBox="0 0 2000 2000" enable-background="new 0 0 2000 2000" xml:space="preserve">
<path fill="#FFF200" d="M1772.244,1233.501c-52.19-19.877-105.214-37.63-160.26-47.244c-26.252-4.585-34.446-12.607-24.073-39.489
	c27.67-71.705,35.084-149.961,70.562-219.389c11.763-23.019-7.095-23.603-21.763-24.015c-58.037-1.631-116.291-3.12-173.317,9.781
	c-26.028,5.888-33.594-4.442-36.944-27.81c-9.29-64.799-9.716-128.909,8.49-192.379c2.385-8.315,8.358-18.879-0.808-24.578
	c-7.865-4.89-16.857,2.458-24.649,6.761c-62.038,34.26-118.232,76.627-165.859,128.834c-21.267,23.313-27.224,16.437-40.194-6.541
	c-52.182-92.446-135.996-274.954-136.011-262.84c-0.251,202.009-0.283,404.019-0.083,606.028
	c0.037,36.994-7.833,69.014-46.421,84.383c-7.013,2.794-14.029,4.547-20.916,5.342c-6.887-0.795-13.902-2.548-20.916-5.342
	c-38.587-15.369-46.457-47.389-46.42-84.383c0.2-202.009,0.168-404.019-0.083-606.028c-0.015-12.114-83.829,170.394-136.011,262.84
	c-12.97,22.978-18.927,29.854-40.194,6.541C708.748,751.766,652.555,709.4,590.517,675.14c-7.791-4.303-16.784-11.651-24.648-6.761
	c-9.166,5.699-3.193,16.263-0.808,24.578c18.206,63.47,17.78,127.58,8.49,192.379c-3.35,23.368-10.916,33.699-36.944,27.81
	c-57.026-12.901-115.279-11.412-173.317-9.781c-14.668,0.412-33.526,0.995-21.763,24.015
	c35.479,69.428,42.892,147.684,70.562,219.389c10.373,26.881,2.18,34.904-24.073,39.489c-55.046,9.613-108.071,27.367-160.26,47.244
	c-6.512,2.48-17.351,3.532-15.184,14.331c1.55,7.725,10.372,6.843,16.623,8.324c39.677,9.399,74.422,29.573,109.268,49.644
	c74.379,42.842,146.866,89.562,231.11,112.164c133.924,35.931,261.866-11.132,325.657-121.449
	c13.268-22.945,21.889-48.578,34.104-76.266c13.919,10.278,25.951,19.162,38.507,28.433c-64.29,44.813-70.79,95.596-20.815,152.941
	c16.826,19.307,36.4,36.235,49.189,58.973c0.919,1.634,1.943,3.157,3.034,4.507c0.247,0.305,0.498,0.594,0.751,0.879
	c0.254-0.285,0.505-0.574,0.751-0.879c1.091-1.349,2.115-2.873,3.034-4.507c12.789-22.738,32.363-39.666,49.189-58.973
	c49.975-57.345,43.474-108.128-20.815-152.941c12.556-9.271,24.588-18.155,38.507-28.433c12.215,27.688,20.836,53.321,34.104,76.266
	c63.791,110.317,191.733,157.381,325.657,121.449c84.244-22.602,156.731-69.322,231.11-112.164
	c34.846-20.071,69.591-40.245,109.268-49.644c6.252-1.481,15.073-0.599,16.623-8.324
	C1789.596,1237.032,1778.756,1235.981,1772.244,1233.501z M822.73,835.054c30.995-52.474,61.091-105.485,84.529-170.608v372.973
	c-22.005-55.994-48.72-107.185-83.509-153.797C810.852,866.339,812.593,852.216,822.73,835.054z M757.488,845.469
	c9.682,10.438,5.089,20.829,0.668,31.031c-10.708,24.705-18.714,50.35-22.972,76.758c-3.024,18.754-10.107,22.487-26.78,14.563
	c-19.118-9.086-38.27-19.21-58.551-24.489c-33.562-8.737-44.509-26.591-37.12-60.808c10.87-50.336,3.167-101.259-5.134-158.354
	C666.956,760.57,714.916,799.57,757.488,845.469z M599.137,978.229c2.498-15.129,12.574-15.79,25.227-11.955
	c29.99,9.09,58.813,20.919,86.648,35.211c9.302,4.776,16.465,11.159,16.954,22.852c3.155,75.355,26.82,144.052,67.634,208.86
	c-60.21-27.766-120.644-49.393-185.465-57.651c-17.211-2.192-23.629-15.376-24.963-31.129
	C580.413,1088.253,590.054,1033.237,599.137,978.229z M391.286,954.604c-7.086-14.82-1.593-21.038,13.783-19.987
	c45.571,3.115,91.298,4.35,136.421,12.676c15.922,2.938,19.9,12.928,17.977,26.646c-8.362,59.66-14.441,118.978-9.571,179.815
	c2.425,30.302-29.577,10.134-43.181,16.841c-37.59,10.755-50.097-10.174-60.07-40.769
	C427.657,1071.577,417.956,1010.381,391.286,954.604z M531.01,1369.841c-50.746-23.223-96.457-55.471-144.777-83.059
	c-24.832-14.178-50.483-26.92-79.16-42.109c39.752-19.927,80.158-26.131,119.923-33.693c15.589-2.965,18.999,13.266,25.018,23.078
	c62.996,102.707,153.086,158.909,275.374,162.779C658.295,1416.256,593.705,1398.533,531.01,1369.841z M576.795,1325.858
	c-35.85-25.525-63.932-58.387-86.679-96.318c-13.844-23.084-6.338-26.613,16.978-28.627c35.161-3.037,55.122,5.214,70.568,41.962
	c35.798,85.166,106.633,121.481,197.607,121.769C702.997,1383.01,636.895,1368.647,576.795,1325.858z M844.967,1317.609
	c-26.847,17.054-55.736,27.446-81.908,27.268c-72.125-3.064-141.645-58.588-159.232-121.518
	c-4.287-15.339-2.047-19.747,14.865-17.737c82.303,9.783,157.371,37.927,225.632,84.917
	C858.443,1300.257,859.768,1308.207,844.967,1317.609z M879.781,1254.848c-1.995,8.352-0.94,19.979-9.663,23.485
	c-10.412,4.185-14.589-7.621-20.153-13.732c-51.494-56.561-85.801-121.187-91.311-198.838c-0.598-8.427-4.381-19.755,4.159-24.748
	c9.65-5.642,15.665,5.416,21.901,10.805c56.01,48.407,92.416,107.309,96.737,183.597
	C880.984,1241.625,881.307,1248.457,879.781,1254.848z M906.58,1205.771c-0.779,6.479-2.875,12.799-6.1,26.458
	c-6.157-93.142-45.424-161.828-112.787-212.917c-24.6-18.657-27.861-36.832-18.166-62.226c7.699-20.166,6.481-52.715,27.477-55.919
	c17.784-2.714,27.548,28.087,38.329,45.586c43.862,71.197,71.816,147.688,72.758,232.434
	C908.189,1188.047,907.637,1196.972,906.58,1205.771z M1458.511,947.293c45.122-8.326,90.85-9.561,136.421-12.676
	c15.376-1.051,20.869,5.167,13.783,19.987c-26.671,55.777-36.372,116.972-55.358,175.221c-9.972,30.594-22.48,51.524-60.069,40.769
	c-13.605-6.707-45.607,13.462-43.182-16.841c4.869-60.838-1.209-120.155-9.572-179.815
	C1438.611,960.22,1442.589,950.23,1458.511,947.293z M1400.863,978.229c9.083,55.008,18.724,110.023,13.965,166.189
	c-1.335,15.754-7.752,28.937-24.964,31.129c-64.822,8.258-125.255,29.885-185.465,57.651
	c40.814-64.808,64.479-133.505,67.634-208.86c0.49-11.693,7.652-18.076,16.954-22.852c27.836-14.292,56.658-26.121,86.649-35.211
	C1388.289,962.439,1398.364,963.1,1400.863,978.229z M1242.512,845.469c42.572-45.899,90.532-84.899,149.889-121.3
	c-8.301,57.095-16.004,108.018-5.134,158.354c7.389,34.217-3.558,52.071-37.12,60.808c-20.281,5.28-39.433,15.403-58.551,24.489
	c-16.674,7.924-23.756,4.191-26.78-14.563c-4.258-26.409-12.264-52.054-22.972-76.758
	C1237.422,866.298,1232.83,855.907,1242.512,845.469z M1092.741,664.446c23.438,65.123,53.534,118.134,84.529,170.608
	c10.137,17.162,11.878,31.285-1.021,48.568c-34.789,46.612-61.504,97.804-83.509,153.797V664.446z M1099.52,1232.229
	c-3.225-13.659-5.321-19.979-6.1-26.458c-1.057-8.798-1.609-17.724-1.511-26.585c0.942-84.746,28.896-161.237,72.758-232.434
	c10.781-17.499,20.545-48.3,38.328-45.586c20.996,3.204,19.778,35.753,27.477,55.919c9.695,25.394,6.435,43.568-18.166,62.226
	C1144.944,1070.401,1105.677,1139.087,1099.52,1232.229z M1129.882,1278.333c-8.723-3.506-7.668-15.133-9.663-23.485
	c-1.526-6.391-1.203-13.223-1.67-19.432c4.321-76.288,40.726-135.19,96.736-183.597c6.236-5.389,12.251-16.447,21.901-10.805
	c8.541,4.993,4.757,16.321,4.159,24.748c-5.509,77.65-39.817,142.277-91.311,198.838
	C1144.471,1270.712,1140.294,1282.518,1129.882,1278.333z M1155.675,1290.539c68.261-46.99,143.328-75.134,225.632-84.917
	c16.913-2.01,19.152,2.398,14.865,17.737c-17.587,62.93-87.107,118.454-159.232,121.518c-26.172,0.178-55.061-10.214-81.908-27.268
	C1140.232,1308.207,1141.557,1300.257,1155.675,1290.539z M1422.338,1242.875c15.446-36.748,35.407-44.999,70.568-41.962
	c23.316,2.014,30.821,5.542,16.978,28.627c-22.747,37.931-50.829,70.793-86.679,96.318
	c-60.099,42.789-126.202,57.152-198.474,38.787C1315.705,1364.356,1386.54,1328.042,1422.338,1242.875z M1613.767,1286.782
	c-48.319,27.588-94.031,59.836-144.777,83.059c-62.695,28.692-127.285,46.415-196.378,26.996
	c122.288-3.87,212.378-60.072,275.374-162.779c6.019-9.813,9.428-26.043,25.018-23.078c39.765,7.562,80.17,13.767,119.923,33.693
	C1664.25,1259.863,1638.599,1272.605,1613.767,1286.782z"/>
</svg>
